<?xml version="1.0" encoding="utf-8"?>
<!-- Generator: Adobe Illustrator 21.1.0, SVG Export Plug-In . SVG Version: 6.00 Build 0)  -->
<svg version="1.1" id="圖層_1" xmlns="http://www.w3.org/2000/svg" xmlns:xlink="http://www.w3.org/1999/xlink" x="0px" y="0px"
	 viewBox="0 0 32 32" style="enable-background:new 0 0 32 32;" xml:space="preserve">
<style type="text/css">
	.st0{fill:#EEB41B;}
	.st1{fill:#D33818;}
	.st2{fill:#E03612;}
</style>
<g>
	<path class="st0" d="M27.7,31.6c0,0-0.1,0-0.1,0c-2.5-2.5-5-5-7.5-7.5c-0.1-0.1-0.4-0.2-0.3-0.5c0.2-0.2,0.4-0.4,0.6-0.6
		c0.2-0.1,0.3-0.2,0.4-0.3c0.4-0.3,0.7-0.6,1-0.9c0.5-0.4,0.9-0.8,1.4-1.3c0.1,0,0.2-0.1,0.3-0.2c0.1-0.1,0.2-0.2,0.2-0.2
		c0.1,0,0.2,0,0.3,0.1c2.5,2.5,5,5,7.4,7.4c0.2,0.2,0.2,0.3,0,0.5c-0.4,0.4-0.8,0.8-1.1,1.2c-0.2,0.1-0.3,0.2-0.4,0.4
		c-0.1,0.1-0.2,0.2-0.2,0.2c-0.2,0.1-0.4,0.3-0.5,0.5C28.6,30.7,28.1,31.1,27.7,31.6z"/>
	<path class="st1" d="M22.3,18.6c-0.2,0.1-0.3,0.2-0.4,0.4c-0.5,0.4-1,0.9-1.4,1.4c-0.4,0.3-0.7,0.6-1,1c-0.2,0.1-0.3,0.2-0.4,0.4
		c-0.2,0.2-0.5,0.4-0.7,0.6c-0.4-0.3-0.7-0.6-1-1c-0.3-0.4-0.6-0.5-0.9,0c-0.1,0.1-0.2,0.2-0.3,0.4c0,0-0.1,0.1-0.1,0.1
		c-0.3,0.3-0.5,0.2-0.7,0c-2.7-2.8-5.5-5.5-8.2-8.2C7,13.3,6.7,13.2,7,12.9c0.1-0.1,0.2-0.2,0.3-0.3c0.4-0.4,0.8-0.8,1.2-1.2
		c0,0,0.1-0.1,0.1-0.1c0.4-0.4,0.8-0.8,1.2-1.2C9.9,10,10,9.9,10.1,9.7c0.2-0.2,0.3-0.3,0.5-0.5c0,0,0.1-0.1,0.1-0.1
		c0.3-0.2,0.5-0.4,0.7-0.7c0,0,0.1-0.1,0.1-0.1c0.2-0.2,0.3-0.3,0.5-0.5c0.1-0.1,0.2-0.2,0.3-0.3c0.2-0.2,0.3-0.3,0.5-0.5
		c0,0,0.1-0.1,0.1-0.1c0.4-0.5,0.7-0.4,1.1,0.1c2.7,2.7,5.3,5.3,8,8c0.1,0.1,0.4,0.2,0.3,0.5c0,0-0.1,0.1-0.1,0.1
		C22,15.9,21.9,16,21.9,16c-0.1,0.1-0.2,0.2-0.3,0.3c-0.2,0.1-0.4,0.3-0.5,0.5c-0.3,0.1-0.2,0.2,0,0.4c0.3,0.3,0.7,0.7,1,1
		C22.2,18.3,22.4,18.4,22.3,18.6z"/>
	<path class="st1" d="M14.7,2.3C14.8,2.3,14.8,2.3,14.7,2.3c0.6-0.6,1.2-1.1,1.7-1.7c0.1-0.1,0.3-0.3,0.5-0.2
		c0.8,0.8,1.6,1.6,2.3,2.4c2.9,2.9,5.8,5.8,8.8,8.7c0.4,0.4,0.5,0.7,0,1c-0.1,0.1-0.2,0.2-0.3,0.3c-0.2,0.1-0.4,0.3-0.5,0.5
		c0,0-0.1,0.1-0.1,0.1c-0.2,0.1-0.4,0.3-0.5,0.5c-0.1,0.1-0.2,0.2-0.3,0.3c-0.2,0.1-0.3,0.3-0.5,0.5c-0.1,0.1-0.2,0.2-0.3,0.3
		c-0.2,0.1-0.4,0.3-0.5,0.5c0,0-0.1,0.1-0.1,0.1c-0.2,0.2-0.4,0-0.5-0.2c-3.7-3.7-7.5-7.5-11.2-11.2c-0.1-0.1-0.3-0.2-0.2-0.4
		c0.1-0.1,0.2-0.2,0.3-0.3C13.7,3.4,13.8,3.2,14,3C14,3,14.1,3,14.1,3C14.3,2.7,14.5,2.5,14.7,2.3z"/>
	<path class="st2" d="M2.1,15c0.1-0.1,0.2-0.2,0.3-0.3c0.2-0.2,0.3-0.3,0.5-0.5c0,0,0.1-0.1,0.1-0.1c0.2-0.2,0.4-0.4,0.7-0.7
		c0,0,0.1-0.1,0.1-0.1c0.3-0.3,0.5-0.3,0.8,0c3.7,3.7,7.4,7.4,11,11c0.2,0.2,0.4,0.4,0.1,0.7c-0.1,0.1-0.2,0.2-0.3,0.3
		c-0.2,0.1-0.3,0.3-0.5,0.5c-0.1,0.1-0.2,0.2-0.3,0.3c-0.2,0.1-0.4,0.3-0.5,0.5c0,0-0.1,0.1-0.1,0.1c-0.2,0.2-0.5,0.4-0.6,0.6
		c0,0-0.1,0.1-0.1,0.1c-0.2,0.1-0.4,0.3-0.5,0.5c-0.1,0.1-0.2,0.2-0.3,0.3c-0.1,0.1-0.2,0.2-0.3,0.3c-3-3-5.9-5.9-8.9-8.9
		c-0.9-0.9-1.9-1.8-2.8-2.8c-0.1-0.3,0.1-0.4,0.3-0.5C1.2,15.8,1.7,15.4,2.1,15z"/>
</g>
</svg>
