<?xml version="1.0" encoding="utf-8"?>
<!-- Generator: Adobe Illustrator 21.1.0, SVG Export Plug-In . SVG Version: 6.00 Build 0)  -->
<svg version="1.1" id="圖層_1" xmlns="http://www.w3.org/2000/svg" xmlns:xlink="http://www.w3.org/1999/xlink" x="0px" y="0px"
	 viewBox="0 0 156 156" style="enable-background:new 0 0 156 156;" xml:space="preserve">
<style type="text/css">
	.st0{fill:#EEB41B;}
	.st1{fill:#D33818;}
	.st2{fill:#E03612;}
</style>
<g>
	<path class="st0" d="M136.5,155.1c-0.2,0-0.4,0-0.6,0c-12.3-12.4-24.6-24.7-36.9-37.1c-0.7-0.7-2-1.2-1.6-2.6
		c1.2-0.8,2.2-1.8,3.1-3c0.8-0.4,1.3-1,1.8-1.7c1.7-1.4,3.3-2.8,4.7-4.5c2.4-2,4.7-4.1,6.7-6.5c0.6-0.2,1-0.6,1.3-1.2
		c0.4-0.4,0.8-0.8,1.2-1.1c0.7-0.2,1.1,0.2,1.6,0.6c12.2,12.2,24.5,24.5,36.7,36.7c1.1,1.1,0.8,1.7-0.2,2.6
		c-1.9,1.9-3.8,3.8-5.7,5.8c-0.8,0.4-1.4,1-1.8,1.8c-0.4,0.4-0.8,0.8-1.2,1.2c-1,0.6-1.8,1.4-2.4,2.4
		C140.7,150.5,138.3,152.5,136.5,155.1z"/>
	<path class="st1" d="M109.8,91.2c-0.8,0.4-1.4,1-1.8,1.8c-2.5,2-4.9,4.3-7,6.7c-1.9,1.4-3.5,3-5,4.8c-0.8,0.4-1.4,1-1.8,1.7
		c-1.2,1.1-2.4,2.1-3.6,3.2c-1.7-1.6-3.6-3.1-5.2-4.9c-1.6-1.8-2.8-2.2-4.3-0.1c-0.4,0.6-1,1.2-1.5,1.8c-0.2,0.2-0.3,0.3-0.5,0.5
		c-1.3,1.5-2.2,1.1-3.5-0.2C62.1,92.9,48.5,79.4,35,65.9c-0.8-0.8-2.4-1.5-0.9-3.1c0.6-0.6,1.1-1.1,1.7-1.7c2-2,3.9-3.9,5.9-5.9
		c0.1-0.1,0.3-0.3,0.4-0.4c2-2,3.9-3.9,5.9-5.9c0.6-0.6,1.1-1.1,1.7-1.7c0.8-0.8,1.5-1.5,2.3-2.3c0.1-0.1,0.3-0.3,0.4-0.4
		c1.2-0.9,2.3-2,3.2-3.2c0.1-0.1,0.3-0.3,0.4-0.4c0.8-0.8,1.5-1.5,2.3-2.3c0.6-0.6,1.1-1.1,1.7-1.7c0.8-0.8,1.5-1.5,2.3-2.3
		c0.1-0.1,0.3-0.3,0.4-0.4c2-2.6,3.4-1.9,5.5,0.2C81,47.9,94.3,61,107.5,74.1c0.7,0.7,2,1.2,1.7,2.6c-0.2,0.2-0.3,0.3-0.5,0.5
		c-0.4,0.4-0.8,0.8-1.2,1.2c-0.4,0.4-0.9,0.9-1.3,1.3c-1,0.6-1.8,1.4-2.4,2.4c-1.3,0.6-0.9,1.2-0.1,1.9c1.7,1.6,3.4,3.3,5,5
		C109.2,89.7,110.2,90.1,109.8,91.2z"/>
	<path class="st1" d="M72.3,10.6c0.1-0.1,0.3-0.3,0.4-0.4c2.7-2.6,5.4-5.2,8.1-7.9c0.7-0.7,1.2-1.7,2.4-0.8
		c3.9,3.9,7.7,7.9,11.6,11.8c14.4,14.4,28.7,28.8,43.2,43.1c2,2,2.4,3.3,0.2,5.1c-0.4,0.4-0.9,0.9-1.3,1.3c-1,0.6-1.8,1.4-2.4,2.4
		c-0.2,0.2-0.3,0.3-0.5,0.5c-1,0.6-1.8,1.4-2.4,2.4c-0.4,0.4-0.9,0.9-1.3,1.3c-0.9,0.6-1.7,1.4-2.3,2.3c-0.4,0.4-0.9,0.9-1.3,1.3
		c-1,0.6-1.8,1.4-2.4,2.4c-0.2,0.2-0.3,0.3-0.5,0.5c-1.2,0.9-1.8-0.2-2.4-0.8C102.9,56.8,84.4,38.4,66,20c-0.5-0.5-1.4-0.9-1.1-1.9
		c0.5-0.4,0.9-0.9,1.4-1.3c0.8-0.8,1.6-1.6,2.4-2.4c0.1-0.1,0.3-0.3,0.4-0.4C70.2,12.8,71.2,11.7,72.3,10.6z"/>
	<path class="st2" d="M10,73c0.6-0.6,1.1-1.1,1.7-1.7c0.8-0.8,1.5-1.5,2.3-2.3c0.1-0.1,0.3-0.3,0.4-0.4c1.1-1.1,2.2-2.1,3.2-3.2
		c0.1-0.1,0.3-0.3,0.4-0.4c1.3-1.5,2.2-1.4,3.7,0.1c18.1,18.2,36.3,36.3,54.5,54.5c1,1,2.2,1.9,0.6,3.3c-0.4,0.4-0.9,0.9-1.3,1.3
		c-0.9,0.6-1.7,1.4-2.3,2.3c-0.4,0.4-0.9,0.9-1.3,1.3c-1,0.6-1.8,1.4-2.4,2.4c-0.2,0.2-0.3,0.3-0.5,0.5c-1.2,0.9-2.3,1.9-3.1,3.1
		c-0.2,0.2-0.3,0.3-0.5,0.5c-1,0.6-1.8,1.4-2.4,2.4c-0.4,0.4-0.9,0.9-1.3,1.3c-0.5,0.4-1.1,0.9-1.6,1.3
		c-14.6-14.6-29.2-29.1-43.9-43.7c-4.6-4.6-9.3-9.1-13.9-13.7c-0.5-1.3,0.7-1.7,1.3-2.4C5.6,77.4,7.8,75.2,10,73z"/>
</g>
</svg>
