<?xml version="1.0" encoding="utf-8"?>
<!-- Generator: Adobe Illustrator 21.1.0, SVG Export Plug-In . SVG Version: 6.00 Build 0)  -->
<svg version="1.1" id="圖層_1" xmlns="http://www.w3.org/2000/svg" xmlns:xlink="http://www.w3.org/1999/xlink" x="0px" y="0px"
	 viewBox="0 0 32 32" style="enable-background:new 0 0 32 32;" xml:space="preserve">
<style type="text/css">
	.st0{fill:#EEB41B;}
	.st1{fill:#D33818;}
	.st2{fill:#E03612;}
</style>
<g>
	<path class="st0" d="M30.9,18.7C30.9,18.8,30.9,18.8,30.9,18.7c-3.6,0.1-7.2,0.1-10.7,0.1c-0.2,0-0.5,0.1-0.6-0.1
		c0.1-0.3,0.1-0.6,0-0.9c0.1-0.2,0.1-0.3,0-0.5c0.1-0.4,0.1-0.9,0-1.3c0.1-0.6,0.1-1.3,0-1.9c0.1-0.1,0.1-0.2,0-0.3
		c0-0.1,0-0.2,0-0.3c0.1-0.1,0.2-0.1,0.3-0.1c3.5,0,7,0,10.5,0c0.3,0,0.4,0.1,0.3,0.4c0,0.5,0,1.1,0,1.6c0,0.2-0.1,0.3,0,0.5
		c0,0.1,0,0.2,0,0.3c-0.1,0.2-0.1,0.5,0,0.7C30.9,17.5,30.8,18.1,30.9,18.7z"/>
	<path class="st1" d="M18,13.4c0,0.2-0.1,0.3,0,0.5c-0.1,0.7-0.1,1.3,0,2c-0.1,0.5-0.1,0.9,0,1.4c-0.1,0.2-0.1,0.3,0,0.5
		c0,0.3,0,0.6-0.1,1c-0.5,0-1,0.1-1.4,0c-0.5,0-0.7,0.1-0.6,0.6c0,0.2,0,0.3,0,0.5c0,0,0,0.1,0,0.1c0,0.4-0.2,0.5-0.5,0.5
		c-3.9,0-7.8,0-11.6,0c-0.2,0-0.6,0.1-0.6-0.3c0-0.2,0-0.3,0-0.5c0-0.6,0-1.1,0-1.7c0,0,0-0.1,0-0.1c0-0.6,0-1.1,0-1.7
		c0-0.2,0-0.3,0-0.5c0-0.2,0-0.4,0-0.7C3,15,3,15,3,15c0-0.3,0-0.6,0-0.9c0,0,0-0.1,0-0.1c0-0.2,0-0.4,0-0.7c0-0.2,0-0.3,0-0.5
		c0-0.2,0-0.4,0-0.7c0,0,0-0.1,0-0.1c-0.1-0.6,0.2-0.8,0.8-0.7c3.8,0,7.6,0,11.3,0c0.2,0,0.5-0.1,0.6,0.1c0,0,0,0.1,0,0.1
		c0,0.1,0,0.2,0,0.3c0,0.1,0,0.3,0,0.4c0,0.2-0.1,0.5,0,0.7c-0.1,0.3,0,0.3,0.3,0.3c0.5,0,1,0,1.4,0C17.7,13.3,17.9,13.2,18,13.4z"
		/>
	<path class="st1" d="M1.1,7.2c0,0,0-0.1,0-0.1c0-0.8,0-1.5,0-2.3c0-0.2-0.1-0.4,0.2-0.5c1.1,0,2.2,0,3.3,0c4.1,0,8.2,0,12.4,0
		c0.6,0,0.8,0.1,0.8,0.7c0,0.1,0,0.3,0,0.4c0,0.2-0.1,0.5,0,0.7c0,0,0,0.1,0,0.1c-0.1,0.2,0,0.5,0,0.7c0,0.1,0,0.3,0,0.4
		c0,0.2,0,0.4,0,0.7c0,0.1,0,0.3,0,0.4c0,0.2-0.1,0.5,0,0.7c0,0,0,0.1,0,0.1c0,0.3-0.3,0.2-0.5,0.2c-5.3,0-10.6,0-15.8,0
		c-0.1,0-0.3,0.1-0.4-0.1c0-0.1,0-0.3,0-0.4c0-0.2,0-0.5,0-0.7c0,0,0-0.1,0-0.1C1.1,7.8,1.1,7.5,1.1,7.2z"/>
	<path class="st2" d="M1.1,25.1c0-0.2,0-0.3,0-0.5c0-0.2,0-0.4,0-0.7c0,0,0-0.1,0-0.1c0-0.3,0-0.6,0-0.9c0,0,0-0.1,0-0.1
		c0-0.4,0.1-0.5,0.6-0.5c5.2,0,10.4,0,15.6,0c0.3,0,0.6,0,0.6,0.4c0,0.1,0,0.2,0,0.4c0,0.2,0,0.4,0,0.7c0,0.1,0,0.3,0,0.4
		c0,0.2-0.1,0.5,0,0.7c0,0,0,0.1,0,0.1c-0.1,0.3-0.1,0.6,0,0.9c0,0,0,0.1,0,0.1c-0.1,0.2,0,0.5,0,0.7c0,0.1,0,0.3,0,0.4
		c0,0.1,0,0.3,0,0.4c-4.2,0-8.4,0-12.5,0c-1.3,0-2.6,0-4,0C1,27.4,1.1,27.2,1.1,27C1.1,26.3,1.1,25.7,1.1,25.1z"/>
</g>
</svg>
